<svg xmlns="http://www.w3.org/2000/svg" width="38.135" height="30.989" viewBox="0 0 38.135 30.989">
  <path id="twitter" d="M41.067,10.174a15.616,15.616,0,0,1-4.494,1.232,7.836,7.836,0,0,0,3.439-4.328,15.686,15.686,0,0,1-4.969,1.9A7.826,7.826,0,0,0,21.51,14.329a7.91,7.91,0,0,0,.2,1.782A22.21,22.21,0,0,1,5.587,7.936,7.838,7.838,0,0,0,8.008,18.382,7.808,7.808,0,0,1,4.465,17.4v.1a7.825,7.825,0,0,0,6.276,7.671,7.828,7.828,0,0,1-2.062.274,7.963,7.963,0,0,1-1.471-.139,7.833,7.833,0,0,0,7.308,5.434,15.786,15.786,0,0,1-11.584,3.24A22.15,22.15,0,0,0,14.925,37.5c14.391,0,22.258-11.921,22.258-22.26q0-.508-.022-1.012A15.919,15.919,0,0,0,41.067,10.174Z" transform="translate(-2.932 -6.506)" fill="#ff6e5a"/>
</svg>
