<svg xmlns="http://www.w3.org/2000/svg" width="38.135" height="30.989" viewBox="0 0 38.135 30.989">
  <path id="twitter" d="M166.067,14.174a15.625,15.625,0,0,1-4.494,1.232,7.838,7.838,0,0,0,3.439-4.328,15.685,15.685,0,0,1-4.969,1.9,7.826,7.826,0,0,0-13.533,5.352,7.91,7.91,0,0,0,.2,1.782,22.209,22.209,0,0,1-16.126-8.175,7.837,7.837,0,0,0,2.421,10.446,7.8,7.8,0,0,1-3.543-.978v.1a7.824,7.824,0,0,0,6.275,7.671,7.819,7.819,0,0,1-2.062.274,7.966,7.966,0,0,1-1.471-.139,7.833,7.833,0,0,0,7.309,5.434,15.787,15.787,0,0,1-11.584,3.24A22.151,22.151,0,0,0,139.925,41.5c14.391,0,22.258-11.921,22.258-22.26q0-.508-.022-1.012A15.922,15.922,0,0,0,166.067,14.174Z" transform="translate(-127.932 -10.506)" fill="#fff"/>
</svg>
