<svg xmlns="http://www.w3.org/2000/svg" width="85.32" height="154.108" viewBox="0 0 85.32 154.108">
  <g id="percentage" transform="translate(4.5 4.531)" filter="blur(1px)">
    <path id="Path_14" data-name="Path 14" d="M16.743,32.96c-.61,1.3-1.132,6.33-1.248,4.02C15.418,35.442,13,41.379,13,42.94c0,2.9.175,5.256,2.564,7.346,3.391,2.967,5.755-3.088,6.861-5.822,1.427-3.525,1.765-9.01-2.564-9.01-4.478,0-8.718,6.755-.624-2.495" fill="rgba(0,0,0,0)" stroke="#ff6e5a" stroke-linecap="round" stroke-width="5"/>
    <path id="Path_15" data-name="Path 15" d="M56.662,112.8c-.61,1.3-1.132,6.33-1.247,4.019-.077-1.537-2.5,4.4-2.5,5.961,0,2.9.175,5.255,2.564,7.346,3.392,2.968,5.755-3.088,6.861-5.822,1.427-3.525,1.765-9.009-2.564-9.009-4.478,0-8.718,6.755-.624-2.495" fill="rgba(0,0,0,0)" stroke="#ff6e5a" stroke-linecap="round" stroke-width="5"/>
    <path id="Path_16" data-name="Path 16" d="M47.93,13c-.381,30.487-7.357,60.73-16.911,89.612-3.194,9.656-7.468,18.67-11.227,28.068-1.406,3.515,2.558-1.033,3.188-1.663" fill="rgba(0,0,0,0)" stroke="#ff6e5a" stroke-linecap="round" stroke-width="5"/>
  </g>
</svg>
